# xmcd
#
# Track frame offsets: 
#        182
#        31507
#        47592
#        61335
#        75752
#        90085
#        103037
#        110125
#        121427
#        173507
#        232637
#        261267
#
# Disc length: 3863 seconds
#
# Revision: 2
# Processed by: cddbd v1.5.2PL0 Copyright (c) Steve Scherf et al.
# Submitted via: ExactAudioCopyFreeDBPlugin 1.0
#
DISCID=7d0f150c
DTITLE=Fleetwood Mac - The Pious Bird Of Good Omen [Comp] [2004 Blue H
DTITLE=orizon]
DYEAR=1969
DGENRE=Rock
TTITLE0=Need Your Love So Bad [Version #2 (Remake), Take 4]
TTITLE1=Rambling Pony
TTITLE2=I Believe My Time Ain't Long
TTITLE3=The Sun Is Shining
TTITLE4=Albatross
TTITLE5=Black Magic Woman
TTITLE6=Jigsaw Puzzle Blues
TTITLE7=Like Crying
TTITLE8=Need Your Love So Bad [Version #1, Takes 1, 2 and 3]
TTITLE9=Need Your Love So Bad [Version #2 (Remake), Takes 1 and 2]
TTITLE10=Need Your Love So Bad [Version #2 (Remake), Take 3]
TTITLE11=Need Your Love So Bad [USA Version]
EXTD=
EXTT0=
EXTT1=
EXTT2=
EXTT3=
EXTT4=
EXTT5=
EXTT6=
EXTT7=
EXTT8=
EXTT9=
EXTT10=
EXTT11=
PLAYORDER=
